<svg width="19" height="21" viewBox="0 0 19 21" fill="none" xmlns="http://www.w3.org/2000/svg">
<path d="M9.72183 9.22222C8.63149 9.22222 7.58582 8.78909 6.81483 8.01811C6.04385 7.24712 5.61072 6.20145 5.61072 5.11111C5.61072 4.02078 6.04385 2.9751 6.81483 2.20412C7.58582 1.43313 8.63149 1 9.72183 1C10.8122 1 11.8578 1.43313 12.6288 2.20412C13.3998 2.9751 13.8329 4.02078 13.8329 5.11111C13.8329 6.20145 13.3998 7.24712 12.6288 8.01811C11.8578 8.78909 10.8122 9.22222 9.72183 9.22222Z" stroke="#109EF4" stroke-width="1.5" stroke-linecap="round"/>
<path d="M1.49976 19.5001V18.4723C1.49976 16.8368 2.14946 15.2683 3.30593 14.1118C4.4624 12.9554 6.03092 12.3057 7.66642 12.3057H11.7775C13.413 12.3057 14.9816 12.9554 16.138 14.1118C17.2945 15.2683 17.9442 16.8368 17.9442 18.4723V19.5001" stroke="#109EF4" stroke-width="1.5" stroke-linecap="round"/>
</svg>
