<svg width="28" height="21" viewBox="0 0 28 21" fill="none" xmlns="http://www.w3.org/2000/svg">
<rect y="0.5" width="28" height="20" rx="2" fill="white"/>
<mask id="mask0_1389_35817" style="mask-type:luminance" maskUnits="userSpaceOnUse" x="0" y="0" width="28" height="21">
<rect y="0.5" width="28" height="20" rx="2" fill="white"/>
</mask>
<g mask="url(#mask0_1389_35817)">
<path fill-rule="evenodd" clip-rule="evenodd" d="M28 0.5H0V1.83333H28V0.5ZM28 3.16667H0V4.5H28V3.16667ZM0 5.83333H28V7.16667H0V5.83333ZM28 8.5H0V9.83333H28V8.5ZM0 11.1667H28V12.5H0V11.1667ZM28 13.8333H0V15.1667H28V13.8333ZM0 16.5H28V17.8333H0V16.5ZM28 19.1667H0V20.5H28V19.1667Z" fill="#D02F44"/>
<rect y="0.5" width="12" height="9.33333" fill="#46467F"/>
<g filter="url(#filter0_d_1389_35817)">
<path fill-rule="evenodd" clip-rule="evenodd" d="M2.66668 2.49992C2.66668 2.86811 2.3682 3.16659 2.00001 3.16659C1.63182 3.16659 1.33334 2.86811 1.33334 2.49992C1.33334 2.13173 1.63182 1.83325 2.00001 1.83325C2.3682 1.83325 2.66668 2.13173 2.66668 2.49992ZM5.33334 2.49992C5.33334 2.86811 5.03487 3.16659 4.66668 3.16659C4.29849 3.16659 4.00001 2.86811 4.00001 2.49992C4.00001 2.13173 4.29849 1.83325 4.66668 1.83325C5.03487 1.83325 5.33334 2.13173 5.33334 2.49992ZM7.33334 3.16659C7.70153 3.16659 8.00001 2.86811 8.00001 2.49992C8.00001 2.13173 7.70153 1.83325 7.33334 1.83325C6.96515 1.83325 6.66668 2.13173 6.66668 2.49992C6.66668 2.86811 6.96515 3.16659 7.33334 3.16659ZM10.6667 2.49992C10.6667 2.86811 10.3682 3.16659 10 3.16659C9.63182 3.16659 9.33334 2.86811 9.33334 2.49992C9.33334 2.13173 9.63182 1.83325 10 1.83325C10.3682 1.83325 10.6667 2.13173 10.6667 2.49992ZM3.33334 4.49992C3.70153 4.49992 4.00001 4.20144 4.00001 3.83325C4.00001 3.46506 3.70153 3.16659 3.33334 3.16659C2.96515 3.16659 2.66668 3.46506 2.66668 3.83325C2.66668 4.20144 2.96515 4.49992 3.33334 4.49992ZM6.66668 3.83325C6.66668 4.20144 6.3682 4.49992 6.00001 4.49992C5.63182 4.49992 5.33334 4.20144 5.33334 3.83325C5.33334 3.46506 5.63182 3.16659 6.00001 3.16659C6.3682 3.16659 6.66668 3.46506 6.66668 3.83325ZM8.66668 4.49992C9.03487 4.49992 9.33334 4.20144 9.33334 3.83325C9.33334 3.46506 9.03487 3.16659 8.66668 3.16659C8.29849 3.16659 8.00001 3.46506 8.00001 3.83325C8.00001 4.20144 8.29849 4.49992 8.66668 4.49992ZM10.6667 5.16659C10.6667 5.53478 10.3682 5.83325 10 5.83325C9.63182 5.83325 9.33334 5.53478 9.33334 5.16659C9.33334 4.7984 9.63182 4.49992 10 4.49992C10.3682 4.49992 10.6667 4.7984 10.6667 5.16659ZM7.33334 5.83325C7.70153 5.83325 8.00001 5.53478 8.00001 5.16659C8.00001 4.7984 7.70153 4.49992 7.33334 4.49992C6.96515 4.49992 6.66668 4.7984 6.66668 5.16659C6.66668 5.53478 6.96515 5.83325 7.33334 5.83325ZM5.33334 5.16659C5.33334 5.53478 5.03487 5.83325 4.66668 5.83325C4.29849 5.83325 4.00001 5.53478 4.00001 5.16659C4.00001 4.7984 4.29849 4.49992 4.66668 4.49992C5.03487 4.49992 5.33334 4.7984 5.33334 5.16659ZM2.00001 5.83325C2.3682 5.83325 2.66668 5.53478 2.66668 5.16659C2.66668 4.7984 2.3682 4.49992 2.00001 4.49992C1.63182 4.49992 1.33334 4.7984 1.33334 5.16659C1.33334 5.53478 1.63182 5.83325 2.00001 5.83325ZM4.00001 6.49992C4.00001 6.86811 3.70153 7.16659 3.33334 7.16659C2.96515 7.16659 2.66668 6.86811 2.66668 6.49992C2.66668 6.13173 2.96515 5.83325 3.33334 5.83325C3.70153 5.83325 4.00001 6.13173 4.00001 6.49992ZM6.00001 7.16659C6.3682 7.16659 6.66668 6.86811 6.66668 6.49992C6.66668 6.13173 6.3682 5.83325 6.00001 5.83325C5.63182 5.83325 5.33334 6.13173 5.33334 6.49992C5.33334 6.86811 5.63182 7.16659 6.00001 7.16659ZM9.33334 6.49992C9.33334 6.86811 9.03487 7.16659 8.66668 7.16659C8.29849 7.16659 8.00001 6.86811 8.00001 6.49992C8.00001 6.13173 8.29849 5.83325 8.66668 5.83325C9.03487 5.83325 9.33334 6.13173 9.33334 6.49992ZM10 8.49992C10.3682 8.49992 10.6667 8.20144 10.6667 7.83325C10.6667 7.46506 10.3682 7.16659 10 7.16659C9.63182 7.16659 9.33334 7.46506 9.33334 7.83325C9.33334 8.20144 9.63182 8.49992 10 8.49992ZM8.00001 7.83325C8.00001 8.20144 7.70153 8.49992 7.33334 8.49992C6.96515 8.49992 6.66668 8.20144 6.66668 7.83325C6.66668 7.46506 6.96515 7.16659 7.33334 7.16659C7.70153 7.16659 8.00001 7.46506 8.00001 7.83325ZM4.66668 8.49992C5.03487 8.49992 5.33334 8.20144 5.33334 7.83325C5.33334 7.46506 5.03487 7.16659 4.66668 7.16659C4.29849 7.16659 4.00001 7.46506 4.00001 7.83325C4.00001 8.20144 4.29849 8.49992 4.66668 8.49992ZM2.66668 7.83325C2.66668 8.20144 2.3682 8.49992 2.00001 8.49992C1.63182 8.49992 1.33334 8.20144 1.33334 7.83325C1.33334 7.46506 1.63182 7.16659 2.00001 7.16659C2.3682 7.16659 2.66668 7.46506 2.66668 7.83325Z" fill="url(#paint0_linear_1389_35817)"/>
</g>
</g>
<defs>
<filter id="filter0_d_1389_35817" x="1.33334" y="1.83325" width="9.33334" height="7.66675" filterUnits="userSpaceOnUse" color-interpolation-filters="sRGB">
<feFlood flood-opacity="0" result="BackgroundImageFix"/>
<feColorMatrix in="SourceAlpha" type="matrix" values="0 0 0 0 0 0 0 0 0 0 0 0 0 0 0 0 0 0 127 0" result="hardAlpha"/>
<feOffset dy="1"/>
<feColorMatrix type="matrix" values="0 0 0 0 0 0 0 0 0 0 0 0 0 0 0 0 0 0 0.06 0"/>
<feBlend mode="normal" in2="BackgroundImageFix" result="effect1_dropShadow_1389_35817"/>
<feBlend mode="normal" in="SourceGraphic" in2="effect1_dropShadow_1389_35817" result="shape"/>
</filter>
<linearGradient id="paint0_linear_1389_35817" x1="1.33334" y1="1.83325" x2="1.33334" y2="8.49992" gradientUnits="userSpaceOnUse">
<stop stop-color="white"/>
<stop offset="1" stop-color="#F0F0F0"/>
</linearGradient>
</defs>
</svg>
